<mxfile host="app.diagrams.net" modified="2023-06-26T17:55:59.620Z" agent="Mozilla/5.0 (Macintosh; Intel Mac OS X 10_15_7) AppleWebKit/537.36 (KHTML, like Gecko) Chrome/114.0.0.0 Safari/537.36" etag="hMafwwbQ-x5NmF9w3q5A" version="21.3.6" type="github" pages="2">
  <diagram id="OGPtt5JKFVUuqzHaBwd1" name="System design">
    <mxGraphModel dx="1741" dy="2031" grid="1" gridSize="10" guides="1" tooltips="1" connect="1" arrows="1" fold="1" page="1" pageScale="1" pageWidth="850" pageHeight="1100" math="0" shadow="0">
      <root>
        <mxCell id="0" />
        <mxCell id="1" parent="0" />
        <mxCell id="QmJA3J8gZkirT87oWw2X-6" value="" style="swimlane;startSize=0;strokeWidth=2;rounded=1;strokeColor=#59df11;" parent="1" vertex="1">
          <mxGeometry x="250" y="-130" width="1412" height="940" as="geometry" />
        </mxCell>
        <mxCell id="QmJA3J8gZkirT87oWw2X-46" value="" style="rounded=1;arcSize=10;dashed=1;strokeColor=#F59D56;fillColor=none;gradientColor=none;dashPattern=8 4;strokeWidth=2;" parent="QmJA3J8gZkirT87oWw2X-6" vertex="1">
          <mxGeometry x="30" y="50" width="1350" height="850" as="geometry" />
        </mxCell>
        <mxCell id="6KC439Vq3jo2LTs7QLCa-1" value="" style="sketch=0;aspect=fixed;pointerEvents=1;shadow=0;dashed=0;html=1;strokeColor=none;labelPosition=center;verticalLabelPosition=bottom;verticalAlign=top;align=center;fillColor=#00188D;shape=mxgraph.mscae.enterprise.application_server;" parent="QmJA3J8gZkirT87oWw2X-6" vertex="1">
          <mxGeometry x="210" y="300" width="43" height="50" as="geometry" />
        </mxCell>
        <mxCell id="6KC439Vq3jo2LTs7QLCa-6" value="" style="sketch=0;aspect=fixed;pointerEvents=1;shadow=0;dashed=0;html=1;strokeColor=none;labelPosition=center;verticalLabelPosition=bottom;verticalAlign=top;align=center;fillColor=#00188D;shape=mxgraph.mscae.enterprise.application_server;" parent="QmJA3J8gZkirT87oWw2X-6" vertex="1">
          <mxGeometry x="210" y="425" width="43" height="50" as="geometry" />
        </mxCell>
        <mxCell id="6KC439Vq3jo2LTs7QLCa-19" value="" style="outlineConnect=0;dashed=0;verticalLabelPosition=bottom;verticalAlign=top;align=center;html=1;shape=mxgraph.aws3.elastic_load_balancing;fillColor=#F58534;gradientColor=none;" parent="QmJA3J8gZkirT87oWw2X-6" vertex="1">
          <mxGeometry x="410" y="343.75" width="76.5" height="93" as="geometry" />
        </mxCell>
        <mxCell id="QmJA3J8gZkirT87oWw2X-38" style="edgeStyle=orthogonalEdgeStyle;rounded=0;orthogonalLoop=1;jettySize=auto;html=1;entryX=0;entryY=0.5;entryDx=0;entryDy=0;entryPerimeter=0;" parent="QmJA3J8gZkirT87oWw2X-6" source="6KC439Vq3jo2LTs7QLCa-6" target="6KC439Vq3jo2LTs7QLCa-19" edge="1">
          <mxGeometry relative="1" as="geometry" />
        </mxCell>
        <mxCell id="6KC439Vq3jo2LTs7QLCa-20" style="edgeStyle=orthogonalEdgeStyle;rounded=0;orthogonalLoop=1;jettySize=auto;html=1;exitX=0.57;exitY=0.5;exitDx=0;exitDy=0;exitPerimeter=0;" parent="QmJA3J8gZkirT87oWw2X-6" target="6KC439Vq3jo2LTs7QLCa-19" edge="1" source="6KC439Vq3jo2LTs7QLCa-1">
          <mxGeometry relative="1" as="geometry">
            <mxPoint x="421.5" y="307" as="sourcePoint" />
          </mxGeometry>
        </mxCell>
        <mxCell id="6KC439Vq3jo2LTs7QLCa-3" value="Web server" style="text;strokeColor=none;align=center;fillColor=none;html=1;verticalAlign=middle;whiteSpace=wrap;rounded=0;" parent="QmJA3J8gZkirT87oWw2X-6" vertex="1">
          <mxGeometry x="210" y="260" width="60" height="30" as="geometry" />
        </mxCell>
        <mxCell id="6KC439Vq3jo2LTs7QLCa-8" value="Web server" style="text;strokeColor=none;align=center;fillColor=none;html=1;verticalAlign=middle;whiteSpace=wrap;rounded=0;" parent="QmJA3J8gZkirT87oWw2X-6" vertex="1">
          <mxGeometry x="210" y="490" width="60" height="30" as="geometry" />
        </mxCell>
        <mxCell id="Xp7s31y6vPcok5Bgi0ri-4" value="" style="rounded=1;arcSize=10;dashed=1;fillColor=none;gradientColor=none;dashPattern=8 3 1 3;strokeWidth=2;" vertex="1" parent="QmJA3J8gZkirT87oWw2X-6">
          <mxGeometry x="150" y="250.5" width="230" height="299.5" as="geometry" />
        </mxCell>
        <mxCell id="Xp7s31y6vPcok5Bgi0ri-5" value="&lt;font style=&quot;font-size: 13px;&quot;&gt;ECS&lt;/font&gt;" style="text;strokeColor=#f1b709;align=center;fillColor=#b98383;html=1;verticalAlign=middle;whiteSpace=wrap;rounded=0;" vertex="1" parent="QmJA3J8gZkirT87oWw2X-6">
          <mxGeometry x="150" y="210" width="110" height="30" as="geometry" />
        </mxCell>
        <mxCell id="Xp7s31y6vPcok5Bgi0ri-11" style="edgeStyle=orthogonalEdgeStyle;rounded=0;orthogonalLoop=1;jettySize=auto;html=1;entryX=0.5;entryY=1;entryDx=0;entryDy=0;" edge="1" parent="QmJA3J8gZkirT87oWw2X-6" source="Xp7s31y6vPcok5Bgi0ri-6" target="Xp7s31y6vPcok5Bgi0ri-4">
          <mxGeometry relative="1" as="geometry" />
        </mxCell>
        <mxCell id="Xp7s31y6vPcok5Bgi0ri-6" value="" style="outlineConnect=0;dashed=0;verticalLabelPosition=bottom;verticalAlign=top;align=center;html=1;shape=mxgraph.aws3.ecr;fillColor=#F58534;gradientColor=none;" vertex="1" parent="QmJA3J8gZkirT87oWw2X-6">
          <mxGeometry x="230.5" y="644" width="69" height="72" as="geometry" />
        </mxCell>
        <mxCell id="QmJA3J8gZkirT87oWw2X-41" value="&lt;font style=&quot;font-size: 13px;&quot;&gt;ELB&lt;/font&gt;" style="text;strokeColor=none;align=center;fillColor=none;html=1;verticalAlign=middle;whiteSpace=wrap;rounded=0;" parent="QmJA3J8gZkirT87oWw2X-6" vertex="1">
          <mxGeometry x="418.25" y="445" width="60" height="30" as="geometry" />
        </mxCell>
        <mxCell id="Xp7s31y6vPcok5Bgi0ri-14" value="" style="rounded=1;arcSize=10;dashed=1;fillColor=none;gradientColor=none;dashPattern=8 3 1 3;strokeWidth=2;" vertex="1" parent="QmJA3J8gZkirT87oWw2X-6">
          <mxGeometry x="500" y="239.5" width="199.5" height="279.5" as="geometry" />
        </mxCell>
        <mxCell id="Xp7s31y6vPcok5Bgi0ri-15" value="&lt;font style=&quot;font-size: 13px;&quot;&gt;ECS&lt;/font&gt;" style="text;strokeColor=#f1b709;align=center;fillColor=#b98383;html=1;verticalAlign=middle;whiteSpace=wrap;rounded=0;" vertex="1" parent="QmJA3J8gZkirT87oWw2X-6">
          <mxGeometry x="500" y="199" width="110" height="30" as="geometry" />
        </mxCell>
        <mxCell id="Xp7s31y6vPcok5Bgi0ri-16" style="edgeStyle=orthogonalEdgeStyle;rounded=0;orthogonalLoop=1;jettySize=auto;html=1;entryX=0.5;entryY=1;entryDx=0;entryDy=0;" edge="1" parent="QmJA3J8gZkirT87oWw2X-6" source="Xp7s31y6vPcok5Bgi0ri-17" target="Xp7s31y6vPcok5Bgi0ri-14">
          <mxGeometry relative="1" as="geometry" />
        </mxCell>
        <mxCell id="Xp7s31y6vPcok5Bgi0ri-17" value="" style="outlineConnect=0;dashed=0;verticalLabelPosition=bottom;verticalAlign=top;align=center;html=1;shape=mxgraph.aws3.ecr;fillColor=#F58534;gradientColor=none;" vertex="1" parent="QmJA3J8gZkirT87oWw2X-6">
          <mxGeometry x="565.25" y="644" width="69" height="72" as="geometry" />
        </mxCell>
        <mxCell id="Xp7s31y6vPcok5Bgi0ri-18" value="Write Application Server" style="rounded=0;whiteSpace=wrap;html=1;fillColor=#fa6800;fontColor=#000000;strokeColor=#C73500;" vertex="1" parent="QmJA3J8gZkirT87oWw2X-6">
          <mxGeometry x="530" y="260" width="120" height="60" as="geometry" />
        </mxCell>
        <mxCell id="Xp7s31y6vPcok5Bgi0ri-24" style="edgeStyle=orthogonalEdgeStyle;rounded=0;orthogonalLoop=1;jettySize=auto;html=1;" edge="1" parent="QmJA3J8gZkirT87oWw2X-6" source="6KC439Vq3jo2LTs7QLCa-57" target="Xp7s31y6vPcok5Bgi0ri-22">
          <mxGeometry relative="1" as="geometry" />
        </mxCell>
        <mxCell id="6KC439Vq3jo2LTs7QLCa-57" value="" style="outlineConnect=0;dashed=0;verticalLabelPosition=bottom;verticalAlign=top;align=center;html=1;shape=mxgraph.aws3.kinesis;fillColor=#F58534;gradientColor=none;" parent="QmJA3J8gZkirT87oWw2X-6" vertex="1">
          <mxGeometry x="770" y="279.25" width="90" height="81" as="geometry" />
        </mxCell>
        <mxCell id="6KC439Vq3jo2LTs7QLCa-58" style="edgeStyle=orthogonalEdgeStyle;rounded=0;orthogonalLoop=1;jettySize=auto;html=1;exitX=1;exitY=0.5;exitDx=0;exitDy=0;" parent="QmJA3J8gZkirT87oWw2X-6" source="Xp7s31y6vPcok5Bgi0ri-18" target="6KC439Vq3jo2LTs7QLCa-57" edge="1">
          <mxGeometry relative="1" as="geometry">
            <mxPoint x="670" y="237" as="sourcePoint" />
          </mxGeometry>
        </mxCell>
        <mxCell id="Xp7s31y6vPcok5Bgi0ri-19" value="Pre computed Timeline Application Server" style="rounded=0;whiteSpace=wrap;html=1;fillColor=#1ba1e2;fontColor=#ffffff;strokeColor=#006EAF;" vertex="1" parent="QmJA3J8gZkirT87oWw2X-6">
          <mxGeometry x="530" y="360.25" width="120" height="60" as="geometry" />
        </mxCell>
        <mxCell id="6KC439Vq3jo2LTs7QLCa-67" value="User writes" style="text;strokeColor=none;align=center;fillColor=none;html=1;verticalAlign=middle;whiteSpace=wrap;rounded=0;" parent="QmJA3J8gZkirT87oWw2X-6" vertex="1">
          <mxGeometry x="880" y="279.25" width="60" height="30" as="geometry" />
        </mxCell>
        <mxCell id="Xp7s31y6vPcok5Bgi0ri-22" value="" style="outlineConnect=0;dashed=0;verticalLabelPosition=bottom;verticalAlign=top;align=center;html=1;shape=mxgraph.aws3.cloudwatch;fillColor=#759C3E;gradientColor=none;" vertex="1" parent="QmJA3J8gZkirT87oWw2X-6">
          <mxGeometry x="699.5" y="780" width="120.5" height="113" as="geometry" />
        </mxCell>
        <mxCell id="Xp7s31y6vPcok5Bgi0ri-23" value="" style="endArrow=classic;html=1;rounded=0;exitX=0.894;exitY=1.01;exitDx=0;exitDy=0;exitPerimeter=0;" edge="1" parent="QmJA3J8gZkirT87oWw2X-6" source="Xp7s31y6vPcok5Bgi0ri-4" target="Xp7s31y6vPcok5Bgi0ri-22">
          <mxGeometry width="50" height="50" relative="1" as="geometry">
            <mxPoint x="820" y="500" as="sourcePoint" />
            <mxPoint x="870" y="450" as="targetPoint" />
            <Array as="points">
              <mxPoint x="350" y="840" />
            </Array>
          </mxGeometry>
        </mxCell>
        <mxCell id="6KC439Vq3jo2LTs7QLCa-53" value="" style="sketch=0;points=[[0,0,0],[0.25,0,0],[0.5,0,0],[0.75,0,0],[1,0,0],[0,1,0],[0.25,1,0],[0.5,1,0],[0.75,1,0],[1,1,0],[0,0.25,0],[0,0.5,0],[0,0.75,0],[1,0.25,0],[1,0.5,0],[1,0.75,0]];outlineConnect=0;fontColor=#232F3E;gradientColor=#4D72F3;gradientDirection=north;fillColor=#3334B9;strokeColor=#ffffff;dashed=0;verticalLabelPosition=bottom;verticalAlign=top;align=center;html=1;fontSize=12;fontStyle=0;aspect=fixed;shape=mxgraph.aws4.resourceIcon;resIcon=mxgraph.aws4.documentdb_with_mongodb_compatibility;" parent="QmJA3J8gZkirT87oWw2X-6" vertex="1">
          <mxGeometry x="1110" y="290" width="78" height="78" as="geometry" />
        </mxCell>
        <mxCell id="Xp7s31y6vPcok5Bgi0ri-35" value="&lt;font style=&quot;font-size: 13px;&quot;&gt;Cloudwatch&lt;/font&gt;" style="text;strokeColor=#b85450;align=center;fillColor=#f8cecc;html=1;verticalAlign=middle;whiteSpace=wrap;rounded=0;" vertex="1" parent="QmJA3J8gZkirT87oWw2X-6">
          <mxGeometry x="830" y="863" width="110" height="30" as="geometry" />
        </mxCell>
        <mxCell id="Xp7s31y6vPcok5Bgi0ri-36" value="&lt;span style=&quot;font-size: 13px;&quot;&gt;ECR&lt;/span&gt;" style="text;strokeColor=#b85450;align=center;fillColor=#f8cecc;html=1;verticalAlign=middle;whiteSpace=wrap;rounded=0;" vertex="1" parent="QmJA3J8gZkirT87oWw2X-6">
          <mxGeometry x="210" y="730" width="110" height="30" as="geometry" />
        </mxCell>
        <mxCell id="Xp7s31y6vPcok5Bgi0ri-66" value="&lt;span style=&quot;font-size: 13px;&quot;&gt;ECR&lt;/span&gt;" style="text;strokeColor=#b85450;align=center;fillColor=#f8cecc;html=1;verticalAlign=middle;whiteSpace=wrap;rounded=0;" vertex="1" parent="QmJA3J8gZkirT87oWw2X-6">
          <mxGeometry x="560" y="730" width="110" height="30" as="geometry" />
        </mxCell>
        <mxCell id="jdF7Z_sJU0BXQNIXWPQb-7" value="SNS" style="text;strokeColor=none;align=center;fillColor=none;html=1;verticalAlign=middle;whiteSpace=wrap;rounded=0;" parent="QmJA3J8gZkirT87oWw2X-6" vertex="1">
          <mxGeometry x="1100" y="80" width="60" height="30" as="geometry" />
        </mxCell>
        <mxCell id="jdF7Z_sJU0BXQNIXWPQb-8" value="Push notification to user&lt;br&gt;" style="text;strokeColor=none;align=center;fillColor=none;html=1;verticalAlign=middle;whiteSpace=wrap;rounded=0;" parent="QmJA3J8gZkirT87oWw2X-6" vertex="1">
          <mxGeometry x="870" y="70" width="140" height="30" as="geometry" />
        </mxCell>
        <mxCell id="QmJA3J8gZkirT87oWw2X-13" value="&lt;font style=&quot;font-size: 13px;&quot;&gt;Availability Zone&lt;/font&gt;" style="text;strokeColor=#f1b709;align=center;fillColor=#b98383;html=1;verticalAlign=middle;whiteSpace=wrap;rounded=0;" parent="QmJA3J8gZkirT87oWw2X-6" vertex="1">
          <mxGeometry x="40" y="10" width="110" height="30" as="geometry" />
        </mxCell>
        <mxCell id="QmJA3J8gZkirT87oWw2X-15" style="edgeStyle=orthogonalEdgeStyle;rounded=0;orthogonalLoop=1;jettySize=auto;html=1;exitX=0.5;exitY=1;exitDx=0;exitDy=0;entryX=0.427;entryY=1.035;entryDx=0;entryDy=0;entryPerimeter=0;" parent="QmJA3J8gZkirT87oWw2X-6" source="QmJA3J8gZkirT87oWw2X-13" target="QmJA3J8gZkirT87oWw2X-13" edge="1">
          <mxGeometry relative="1" as="geometry" />
        </mxCell>
        <mxCell id="6KC439Vq3jo2LTs7QLCa-12" style="edgeStyle=orthogonalEdgeStyle;rounded=0;orthogonalLoop=1;jettySize=auto;html=1;" parent="1" source="6KC439Vq3jo2LTs7QLCa-4" edge="1">
          <mxGeometry relative="1" as="geometry">
            <mxPoint x="100" y="280" as="targetPoint" />
          </mxGeometry>
        </mxCell>
        <mxCell id="6KC439Vq3jo2LTs7QLCa-4" value="" style="image;aspect=fixed;perimeter=ellipsePerimeter;html=1;align=center;shadow=0;dashed=0;spacingTop=3;image=img/lib/active_directory/vista_client.svg;" parent="1" vertex="1">
          <mxGeometry x="10" y="120" width="37.6" height="49.47" as="geometry" />
        </mxCell>
        <mxCell id="6KC439Vq3jo2LTs7QLCa-14" style="edgeStyle=orthogonalEdgeStyle;rounded=0;orthogonalLoop=1;jettySize=auto;html=1;" parent="1" source="6KC439Vq3jo2LTs7QLCa-5" edge="1">
          <mxGeometry relative="1" as="geometry">
            <mxPoint x="100" y="280" as="targetPoint" />
          </mxGeometry>
        </mxCell>
        <mxCell id="6KC439Vq3jo2LTs7QLCa-5" value="Actor" style="shape=umlActor;verticalLabelPosition=bottom;verticalAlign=top;html=1;outlineConnect=0;" parent="1" vertex="1">
          <mxGeometry x="10" y="220" width="40" height="60" as="geometry" />
        </mxCell>
        <mxCell id="6KC439Vq3jo2LTs7QLCa-13" style="edgeStyle=orthogonalEdgeStyle;rounded=0;orthogonalLoop=1;jettySize=auto;html=1;" parent="1" source="6KC439Vq3jo2LTs7QLCa-11" edge="1">
          <mxGeometry relative="1" as="geometry">
            <mxPoint x="100" y="280" as="targetPoint" />
          </mxGeometry>
        </mxCell>
        <mxCell id="6KC439Vq3jo2LTs7QLCa-11" value="" style="sketch=0;outlineConnect=0;fontColor=#232F3E;gradientColor=none;fillColor=#232F3D;strokeColor=none;dashed=0;verticalLabelPosition=bottom;verticalAlign=top;align=center;html=1;fontSize=12;fontStyle=0;aspect=fixed;pointerEvents=1;shape=mxgraph.aws4.mobile_client;" parent="1" vertex="1">
          <mxGeometry x="4.5" y="342" width="41" height="78" as="geometry" />
        </mxCell>
        <mxCell id="6KC439Vq3jo2LTs7QLCa-55" style="edgeStyle=orthogonalEdgeStyle;rounded=0;orthogonalLoop=1;jettySize=auto;html=1;" parent="1" source="6KC439Vq3jo2LTs7QLCa-37" target="6KC439Vq3jo2LTs7QLCa-53" edge="1">
          <mxGeometry relative="1" as="geometry" />
        </mxCell>
        <mxCell id="jdF7Z_sJU0BXQNIXWPQb-2" style="edgeStyle=orthogonalEdgeStyle;rounded=0;orthogonalLoop=1;jettySize=auto;html=1;" parent="1" source="6KC439Vq3jo2LTs7QLCa-37" target="jdF7Z_sJU0BXQNIXWPQb-5" edge="1">
          <mxGeometry relative="1" as="geometry">
            <mxPoint x="1164.5" y="-86.13000000000011" as="targetPoint" />
          </mxGeometry>
        </mxCell>
        <mxCell id="Xp7s31y6vPcok5Bgi0ri-25" style="edgeStyle=orthogonalEdgeStyle;rounded=0;orthogonalLoop=1;jettySize=auto;html=1;entryX=0.75;entryY=0.5;entryDx=0;entryDy=0;entryPerimeter=0;" edge="1" parent="1" source="6KC439Vq3jo2LTs7QLCa-37" target="Xp7s31y6vPcok5Bgi0ri-22">
          <mxGeometry relative="1" as="geometry">
            <Array as="points">
              <mxPoint x="1252" y="594" />
            </Array>
          </mxGeometry>
        </mxCell>
        <mxCell id="Xp7s31y6vPcok5Bgi0ri-68" style="edgeStyle=orthogonalEdgeStyle;rounded=0;orthogonalLoop=1;jettySize=auto;html=1;" edge="1" parent="1" source="6KC439Vq3jo2LTs7QLCa-37" target="Xp7s31y6vPcok5Bgi0ri-19">
          <mxGeometry relative="1" as="geometry">
            <Array as="points">
              <mxPoint x="1055" y="240" />
              <mxPoint x="1055" y="270" />
            </Array>
          </mxGeometry>
        </mxCell>
        <mxCell id="6KC439Vq3jo2LTs7QLCa-37" value="" style="outlineConnect=0;dashed=0;verticalLabelPosition=bottom;verticalAlign=top;align=center;html=1;shape=mxgraph.aws3.redis;fillColor=#2E73B8;gradientColor=none;" parent="1" vertex="1">
          <mxGeometry x="1210" y="170.5" width="80" height="79.5" as="geometry" />
        </mxCell>
        <mxCell id="Xp7s31y6vPcok5Bgi0ri-34" style="edgeStyle=orthogonalEdgeStyle;rounded=0;orthogonalLoop=1;jettySize=auto;html=1;" edge="1" parent="1" source="6KC439Vq3jo2LTs7QLCa-53">
          <mxGeometry relative="1" as="geometry">
            <mxPoint x="1040" y="680" as="targetPoint" />
            <Array as="points">
              <mxPoint x="1399" y="660" />
              <mxPoint x="1010" y="660" />
            </Array>
          </mxGeometry>
        </mxCell>
        <mxCell id="QmJA3J8gZkirT87oWw2X-42" style="edgeStyle=orthogonalEdgeStyle;rounded=0;orthogonalLoop=1;jettySize=auto;html=1;entryX=0;entryY=0.5;entryDx=0;entryDy=0;entryPerimeter=0;" parent="1" source="6KC439Vq3jo2LTs7QLCa-57" edge="1" target="6KC439Vq3jo2LTs7QLCa-37">
          <mxGeometry relative="1" as="geometry">
            <mxPoint x="1240" y="170" as="targetPoint" />
          </mxGeometry>
        </mxCell>
        <mxCell id="Xp7s31y6vPcok5Bgi0ri-32" style="edgeStyle=orthogonalEdgeStyle;rounded=0;orthogonalLoop=1;jettySize=auto;html=1;entryX=0.75;entryY=0.5;entryDx=0;entryDy=0;entryPerimeter=0;" edge="1" parent="1" source="Usf6adK-40Itm8aK41Lk-2" target="Xp7s31y6vPcok5Bgi0ri-22">
          <mxGeometry relative="1" as="geometry">
            <Array as="points">
              <mxPoint x="1568" y="717" />
            </Array>
          </mxGeometry>
        </mxCell>
        <mxCell id="Usf6adK-40Itm8aK41Lk-2" value="" style="outlineConnect=0;dashed=0;verticalLabelPosition=bottom;verticalAlign=top;align=center;html=1;shape=mxgraph.aws3.s3;fillColor=#E05243;gradientColor=none;" parent="1" vertex="1">
          <mxGeometry x="1530" y="155.5" width="76.5" height="93" as="geometry" />
        </mxCell>
        <mxCell id="Usf6adK-40Itm8aK41Lk-3" value="" style="shape=flexArrow;endArrow=classic;startArrow=classic;html=1;rounded=0;" parent="1" edge="1">
          <mxGeometry width="100" height="100" relative="1" as="geometry">
            <mxPoint x="1522" y="208.83" as="sourcePoint" />
            <mxPoint x="1450" y="209.3" as="targetPoint" />
          </mxGeometry>
        </mxCell>
        <mxCell id="NyY6tiZ_YxjPjUGcAyBx-7" style="edgeStyle=orthogonalEdgeStyle;rounded=0;orthogonalLoop=1;jettySize=auto;html=1;" parent="1" source="NyY6tiZ_YxjPjUGcAyBx-3" edge="1">
          <mxGeometry relative="1" as="geometry">
            <mxPoint x="90" y="276.5" as="targetPoint" />
          </mxGeometry>
        </mxCell>
        <mxCell id="QmJA3J8gZkirT87oWw2X-37" style="edgeStyle=orthogonalEdgeStyle;rounded=0;orthogonalLoop=1;jettySize=auto;html=1;" parent="1" source="NyY6tiZ_YxjPjUGcAyBx-3" target="QmJA3J8gZkirT87oWw2X-29" edge="1">
          <mxGeometry relative="1" as="geometry" />
        </mxCell>
        <mxCell id="NyY6tiZ_YxjPjUGcAyBx-3" value="" style="outlineConnect=0;dashed=0;verticalLabelPosition=bottom;verticalAlign=top;align=center;html=1;shape=mxgraph.aws3.cloudfront;fillColor=#F58536;gradientColor=none;" parent="1" vertex="1">
          <mxGeometry x="138.25" y="230" width="76.5" height="93" as="geometry" />
        </mxCell>
        <mxCell id="NyY6tiZ_YxjPjUGcAyBx-4" value="AWS Cloud Front" style="text;strokeColor=none;align=center;fillColor=none;html=1;verticalAlign=middle;whiteSpace=wrap;rounded=0;" parent="1" vertex="1">
          <mxGeometry x="138.25" y="334.5" width="60" height="30" as="geometry" />
        </mxCell>
        <mxCell id="NyY6tiZ_YxjPjUGcAyBx-8" value="AWS KINESIS" style="text;strokeColor=none;align=center;fillColor=none;html=1;verticalAlign=middle;whiteSpace=wrap;rounded=0;" parent="1" vertex="1">
          <mxGeometry x="1037" y="111.47" width="60" height="30" as="geometry" />
        </mxCell>
        <mxCell id="jdF7Z_sJU0BXQNIXWPQb-6" style="edgeStyle=orthogonalEdgeStyle;rounded=0;orthogonalLoop=1;jettySize=auto;html=1;" parent="1" source="jdF7Z_sJU0BXQNIXWPQb-5" target="6KC439Vq3jo2LTs7QLCa-4" edge="1">
          <mxGeometry relative="1" as="geometry" />
        </mxCell>
        <mxCell id="jdF7Z_sJU0BXQNIXWPQb-5" value="" style="image;aspect=fixed;html=1;points=[];align=center;fontSize=12;image=img/lib/azure2/web/Notification_Hub_Namespaces.svg;" parent="1" vertex="1">
          <mxGeometry x="1270" y="-50" width="67" height="56.00000000000001" as="geometry" />
        </mxCell>
        <mxCell id="QmJA3J8gZkirT87oWw2X-3" style="edgeStyle=orthogonalEdgeStyle;rounded=0;orthogonalLoop=1;jettySize=auto;html=1;" parent="1" source="QmJA3J8gZkirT87oWw2X-1" target="NyY6tiZ_YxjPjUGcAyBx-3" edge="1">
          <mxGeometry relative="1" as="geometry" />
        </mxCell>
        <mxCell id="QmJA3J8gZkirT87oWw2X-1" value="" style="outlineConnect=0;dashed=0;verticalLabelPosition=bottom;verticalAlign=top;align=center;html=1;shape=mxgraph.aws3.edge_location;fillColor=#F58536;gradientColor=none;" parent="1" vertex="1">
          <mxGeometry x="147.25" y="135.5" width="58.5" height="64.5" as="geometry" />
        </mxCell>
        <mxCell id="QmJA3J8gZkirT87oWw2X-4" value="Edge location" style="text;strokeColor=none;align=center;fillColor=none;html=1;verticalAlign=middle;whiteSpace=wrap;rounded=0;" parent="1" vertex="1">
          <mxGeometry x="138.25" y="100" width="101.75" height="30" as="geometry" />
        </mxCell>
        <mxCell id="QmJA3J8gZkirT87oWw2X-7" value="VPN" style="text;strokeColor=#d6b656;align=center;fillColor=#ef7d1f;html=1;verticalAlign=middle;whiteSpace=wrap;rounded=0;" parent="1" vertex="1">
          <mxGeometry x="250" y="-160" width="60" height="30" as="geometry" />
        </mxCell>
        <mxCell id="QmJA3J8gZkirT87oWw2X-32" style="edgeStyle=orthogonalEdgeStyle;rounded=0;orthogonalLoop=1;jettySize=auto;html=1;entryX=0.275;entryY=0.873;entryDx=0;entryDy=0;entryPerimeter=0;" parent="1" source="QmJA3J8gZkirT87oWw2X-29" target="6KC439Vq3jo2LTs7QLCa-6" edge="1">
          <mxGeometry relative="1" as="geometry" />
        </mxCell>
        <mxCell id="QmJA3J8gZkirT87oWw2X-36" style="edgeStyle=orthogonalEdgeStyle;rounded=0;orthogonalLoop=1;jettySize=auto;html=1;entryX=0;entryY=0.5;entryDx=0;entryDy=0;entryPerimeter=0;" parent="1" source="QmJA3J8gZkirT87oWw2X-29" target="6KC439Vq3jo2LTs7QLCa-1" edge="1">
          <mxGeometry relative="1" as="geometry" />
        </mxCell>
        <mxCell id="QmJA3J8gZkirT87oWw2X-29" value="" style="outlineConnect=0;dashed=0;verticalLabelPosition=bottom;verticalAlign=top;align=center;html=1;shape=mxgraph.aws3.elastic_load_balancing;fillColor=#F58534;gradientColor=none;" parent="1" vertex="1">
          <mxGeometry x="300" y="233.5" width="70" height="93" as="geometry" />
        </mxCell>
        <mxCell id="QmJA3J8gZkirT87oWw2X-39" value="&lt;font style=&quot;font-size: 13px;&quot;&gt;ELB&lt;/font&gt;" style="text;strokeColor=none;align=center;fillColor=none;html=1;verticalAlign=middle;whiteSpace=wrap;rounded=0;" parent="1" vertex="1">
          <mxGeometry x="305" y="346.5" width="60" height="30" as="geometry" />
        </mxCell>
        <mxCell id="QmJA3J8gZkirT87oWw2X-5" value="" style="outlineConnect=0;dashed=0;verticalLabelPosition=bottom;verticalAlign=top;align=center;html=1;shape=mxgraph.aws3.vpc;fillColor=#dc6109;gradientColor=none;strokeWidth=4;" parent="1" vertex="1">
          <mxGeometry x="180" y="-175.5000000000001" width="60" height="81" as="geometry" />
        </mxCell>
      </root>
    </mxGraphModel>
  </diagram>
  <diagram id="Ms-GmdoRinez7m9P5KAb" name="Data model">
    <mxGraphModel dx="1306" dy="714" grid="1" gridSize="10" guides="1" tooltips="1" connect="1" arrows="1" fold="1" page="1" pageScale="1" pageWidth="850" pageHeight="1100" math="0" shadow="0">
      <root>
        <mxCell id="0" />
        <mxCell id="1" parent="0" />
        <mxCell id="bnehW4UcKr64qTlZm-zc-5" value="Tweet_fct" style="swimlane;fontStyle=0;childLayout=stackLayout;horizontal=1;startSize=26;fillColor=none;horizontalStack=0;resizeParent=1;resizeParentMax=0;resizeLast=0;collapsible=1;marginBottom=0;html=1;" vertex="1" parent="1">
          <mxGeometry x="360" y="270" width="140" height="156" as="geometry" />
        </mxCell>
        <mxCell id="bnehW4UcKr64qTlZm-zc-6" value="Name" style="text;strokeColor=none;fillColor=none;align=left;verticalAlign=top;spacingLeft=4;spacingRight=4;overflow=hidden;rotatable=0;points=[[0,0.5],[1,0.5]];portConstraint=eastwest;whiteSpace=wrap;html=1;" vertex="1" parent="bnehW4UcKr64qTlZm-zc-5">
          <mxGeometry y="26" width="140" height="26" as="geometry" />
        </mxCell>
        <mxCell id="bnehW4UcKr64qTlZm-zc-7" value="UID" style="text;strokeColor=none;fillColor=none;align=left;verticalAlign=top;spacingLeft=4;spacingRight=4;overflow=hidden;rotatable=0;points=[[0,0.5],[1,0.5]];portConstraint=eastwest;whiteSpace=wrap;html=1;" vertex="1" parent="bnehW4UcKr64qTlZm-zc-5">
          <mxGeometry y="52" width="140" height="26" as="geometry" />
        </mxCell>
        <mxCell id="bnehW4UcKr64qTlZm-zc-8" value="Tweeet_Location" style="text;strokeColor=none;fillColor=none;align=left;verticalAlign=top;spacingLeft=4;spacingRight=4;overflow=hidden;rotatable=0;points=[[0,0.5],[1,0.5]];portConstraint=eastwest;whiteSpace=wrap;html=1;" vertex="1" parent="bnehW4UcKr64qTlZm-zc-5">
          <mxGeometry y="78" width="140" height="26" as="geometry" />
        </mxCell>
        <mxCell id="bnehW4UcKr64qTlZm-zc-10" value="Tweet" style="text;strokeColor=none;fillColor=none;align=left;verticalAlign=top;spacingLeft=4;spacingRight=4;overflow=hidden;rotatable=0;points=[[0,0.5],[1,0.5]];portConstraint=eastwest;whiteSpace=wrap;html=1;" vertex="1" parent="bnehW4UcKr64qTlZm-zc-5">
          <mxGeometry y="104" width="140" height="26" as="geometry" />
        </mxCell>
        <mxCell id="bnehW4UcKr64qTlZm-zc-11" value="Image_location" style="text;strokeColor=none;fillColor=none;align=left;verticalAlign=top;spacingLeft=4;spacingRight=4;overflow=hidden;rotatable=0;points=[[0,0.5],[1,0.5]];portConstraint=eastwest;whiteSpace=wrap;html=1;" vertex="1" parent="bnehW4UcKr64qTlZm-zc-5">
          <mxGeometry y="130" width="140" height="26" as="geometry" />
        </mxCell>
        <mxCell id="mmQqtr9HR0JtBwJ41FuO-1" value="User" style="swimlane;fontStyle=0;childLayout=stackLayout;horizontal=1;startSize=26;fillColor=none;horizontalStack=0;resizeParent=1;resizeParentMax=0;resizeLast=0;collapsible=1;marginBottom=0;html=1;" vertex="1" parent="1">
          <mxGeometry x="30" y="230" width="140" height="130" as="geometry" />
        </mxCell>
        <mxCell id="mmQqtr9HR0JtBwJ41FuO-5" value="Celebrity_Id" style="text;strokeColor=none;fillColor=none;align=left;verticalAlign=top;spacingLeft=4;spacingRight=4;overflow=hidden;rotatable=0;points=[[0,0.5],[1,0.5]];portConstraint=eastwest;whiteSpace=wrap;html=1;" vertex="1" parent="mmQqtr9HR0JtBwJ41FuO-1">
          <mxGeometry y="26" width="140" height="26" as="geometry" />
        </mxCell>
        <mxCell id="mmQqtr9HR0JtBwJ41FuO-3" value="UID" style="text;strokeColor=none;fillColor=none;align=left;verticalAlign=top;spacingLeft=4;spacingRight=4;overflow=hidden;rotatable=0;points=[[0,0.5],[1,0.5]];portConstraint=eastwest;whiteSpace=wrap;html=1;" vertex="1" parent="mmQqtr9HR0JtBwJ41FuO-1">
          <mxGeometry y="52" width="140" height="26" as="geometry" />
        </mxCell>
        <mxCell id="mmQqtr9HR0JtBwJ41FuO-4" value="Username" style="text;strokeColor=none;fillColor=none;align=left;verticalAlign=top;spacingLeft=4;spacingRight=4;overflow=hidden;rotatable=0;points=[[0,0.5],[1,0.5]];portConstraint=eastwest;whiteSpace=wrap;html=1;" vertex="1" parent="mmQqtr9HR0JtBwJ41FuO-1">
          <mxGeometry y="78" width="140" height="26" as="geometry" />
        </mxCell>
        <mxCell id="mmQqtr9HR0JtBwJ41FuO-17" value="follow_id" style="text;strokeColor=none;fillColor=none;align=left;verticalAlign=top;spacingLeft=4;spacingRight=4;overflow=hidden;rotatable=0;points=[[0,0.5],[1,0.5]];portConstraint=eastwest;whiteSpace=wrap;html=1;" vertex="1" parent="mmQqtr9HR0JtBwJ41FuO-1">
          <mxGeometry y="104" width="140" height="26" as="geometry" />
        </mxCell>
        <mxCell id="mmQqtr9HR0JtBwJ41FuO-8" style="edgeStyle=orthogonalEdgeStyle;rounded=0;orthogonalLoop=1;jettySize=auto;html=1;" edge="1" parent="1" source="mmQqtr9HR0JtBwJ41FuO-3" target="bnehW4UcKr64qTlZm-zc-7">
          <mxGeometry relative="1" as="geometry" />
        </mxCell>
        <mxCell id="mmQqtr9HR0JtBwJ41FuO-9" value="Celebrity_Tweet_fct" style="swimlane;fontStyle=0;childLayout=stackLayout;horizontal=1;startSize=26;fillColor=none;horizontalStack=0;resizeParent=1;resizeParentMax=0;resizeLast=0;collapsible=1;marginBottom=0;html=1;" vertex="1" parent="1">
          <mxGeometry x="360" y="100" width="140" height="156" as="geometry" />
        </mxCell>
        <mxCell id="mmQqtr9HR0JtBwJ41FuO-10" value="Celebrity_id" style="text;strokeColor=none;fillColor=none;align=left;verticalAlign=top;spacingLeft=4;spacingRight=4;overflow=hidden;rotatable=0;points=[[0,0.5],[1,0.5]];portConstraint=eastwest;whiteSpace=wrap;html=1;" vertex="1" parent="mmQqtr9HR0JtBwJ41FuO-9">
          <mxGeometry y="26" width="140" height="26" as="geometry" />
        </mxCell>
        <mxCell id="mmQqtr9HR0JtBwJ41FuO-11" value="celebrity_name" style="text;strokeColor=none;fillColor=none;align=left;verticalAlign=top;spacingLeft=4;spacingRight=4;overflow=hidden;rotatable=0;points=[[0,0.5],[1,0.5]];portConstraint=eastwest;whiteSpace=wrap;html=1;" vertex="1" parent="mmQqtr9HR0JtBwJ41FuO-9">
          <mxGeometry y="52" width="140" height="26" as="geometry" />
        </mxCell>
        <mxCell id="mmQqtr9HR0JtBwJ41FuO-12" value="Tweeet_Location" style="text;strokeColor=none;fillColor=none;align=left;verticalAlign=top;spacingLeft=4;spacingRight=4;overflow=hidden;rotatable=0;points=[[0,0.5],[1,0.5]];portConstraint=eastwest;whiteSpace=wrap;html=1;" vertex="1" parent="mmQqtr9HR0JtBwJ41FuO-9">
          <mxGeometry y="78" width="140" height="26" as="geometry" />
        </mxCell>
        <mxCell id="mmQqtr9HR0JtBwJ41FuO-13" value="Tweet" style="text;strokeColor=none;fillColor=none;align=left;verticalAlign=top;spacingLeft=4;spacingRight=4;overflow=hidden;rotatable=0;points=[[0,0.5],[1,0.5]];portConstraint=eastwest;whiteSpace=wrap;html=1;" vertex="1" parent="mmQqtr9HR0JtBwJ41FuO-9">
          <mxGeometry y="104" width="140" height="26" as="geometry" />
        </mxCell>
        <mxCell id="mmQqtr9HR0JtBwJ41FuO-14" value="Image_location" style="text;strokeColor=none;fillColor=none;align=left;verticalAlign=top;spacingLeft=4;spacingRight=4;overflow=hidden;rotatable=0;points=[[0,0.5],[1,0.5]];portConstraint=eastwest;whiteSpace=wrap;html=1;" vertex="1" parent="mmQqtr9HR0JtBwJ41FuO-9">
          <mxGeometry y="130" width="140" height="26" as="geometry" />
        </mxCell>
        <mxCell id="mmQqtr9HR0JtBwJ41FuO-19" value="User_follows" style="swimlane;fontStyle=0;childLayout=stackLayout;horizontal=1;startSize=26;fillColor=none;horizontalStack=0;resizeParent=1;resizeParentMax=0;resizeLast=0;collapsible=1;marginBottom=0;html=1;" vertex="1" parent="1">
          <mxGeometry x="360" y="460" width="140" height="156" as="geometry" />
        </mxCell>
        <mxCell id="mmQqtr9HR0JtBwJ41FuO-20" value="Follow_id" style="text;strokeColor=none;fillColor=none;align=left;verticalAlign=top;spacingLeft=4;spacingRight=4;overflow=hidden;rotatable=0;points=[[0,0.5],[1,0.5]];portConstraint=eastwest;whiteSpace=wrap;html=1;" vertex="1" parent="mmQqtr9HR0JtBwJ41FuO-19">
          <mxGeometry y="26" width="140" height="26" as="geometry" />
        </mxCell>
        <mxCell id="mmQqtr9HR0JtBwJ41FuO-21" value="Follower_name" style="text;strokeColor=none;fillColor=none;align=left;verticalAlign=top;spacingLeft=4;spacingRight=4;overflow=hidden;rotatable=0;points=[[0,0.5],[1,0.5]];portConstraint=eastwest;whiteSpace=wrap;html=1;" vertex="1" parent="mmQqtr9HR0JtBwJ41FuO-19">
          <mxGeometry y="52" width="140" height="26" as="geometry" />
        </mxCell>
        <mxCell id="mmQqtr9HR0JtBwJ41FuO-22" value="Tweeet_Location" style="text;strokeColor=none;fillColor=none;align=left;verticalAlign=top;spacingLeft=4;spacingRight=4;overflow=hidden;rotatable=0;points=[[0,0.5],[1,0.5]];portConstraint=eastwest;whiteSpace=wrap;html=1;" vertex="1" parent="mmQqtr9HR0JtBwJ41FuO-19">
          <mxGeometry y="78" width="140" height="26" as="geometry" />
        </mxCell>
        <mxCell id="mmQqtr9HR0JtBwJ41FuO-23" value="Tweet" style="text;strokeColor=none;fillColor=none;align=left;verticalAlign=top;spacingLeft=4;spacingRight=4;overflow=hidden;rotatable=0;points=[[0,0.5],[1,0.5]];portConstraint=eastwest;whiteSpace=wrap;html=1;" vertex="1" parent="mmQqtr9HR0JtBwJ41FuO-19">
          <mxGeometry y="104" width="140" height="26" as="geometry" />
        </mxCell>
        <mxCell id="mmQqtr9HR0JtBwJ41FuO-24" value="Image_location" style="text;strokeColor=none;fillColor=none;align=left;verticalAlign=top;spacingLeft=4;spacingRight=4;overflow=hidden;rotatable=0;points=[[0,0.5],[1,0.5]];portConstraint=eastwest;whiteSpace=wrap;html=1;" vertex="1" parent="mmQqtr9HR0JtBwJ41FuO-19">
          <mxGeometry y="130" width="140" height="26" as="geometry" />
        </mxCell>
        <mxCell id="mmQqtr9HR0JtBwJ41FuO-25" style="edgeStyle=orthogonalEdgeStyle;rounded=0;orthogonalLoop=1;jettySize=auto;html=1;entryX=0;entryY=0.5;entryDx=0;entryDy=0;" edge="1" parent="1" source="mmQqtr9HR0JtBwJ41FuO-17" target="mmQqtr9HR0JtBwJ41FuO-20">
          <mxGeometry relative="1" as="geometry" />
        </mxCell>
        <mxCell id="mmQqtr9HR0JtBwJ41FuO-26" style="edgeStyle=orthogonalEdgeStyle;rounded=0;orthogonalLoop=1;jettySize=auto;html=1;entryX=0;entryY=0.5;entryDx=0;entryDy=0;" edge="1" parent="1" source="mmQqtr9HR0JtBwJ41FuO-5" target="mmQqtr9HR0JtBwJ41FuO-10">
          <mxGeometry relative="1" as="geometry" />
        </mxCell>
      </root>
    </mxGraphModel>
  </diagram>
</mxfile>
